<?xml version="1.0" standalone="no"?>
<!DOCTYPE svg PUBLIC "-//W3C//DTD SVG 20010904//EN"
 "http://www.w3.org/TR/2001/REC-SVG-20010904/DTD/svg10.dtd">
<svg version="1.0" xmlns="http://www.w3.org/2000/svg"
 width="786.000000pt" height="786.000000pt" viewBox="0 0 786.000000 786.000000"
 preserveAspectRatio="xMidYMid meet">
<metadata>
Created by potrace 1.11, written by Peter Selinger 2001-2013
</metadata>
<g transform="translate(0.000000,786.000000) scale(0.100000,-0.100000)"
fill="#000000" stroke="none">
<path d="M1893 7582 c-6 -4 -45 -7 -85 -6 -40 0 -81 -3 -92 -9 -13 -6 -16 -6
-12 2 4 6 2 11 -3 11 -6 0 -11 -5 -11 -10 0 -6 -10 -8 -24 -4 -13 3 -27 1 -30
-4 -3 -6 -15 -8 -26 -5 -11 3 -20 0 -20 -6 0 -6 -5 -11 -11 -11 -5 0 -8 4 -5
9 4 5 -3 7 -14 4 -11 -3 -23 -10 -26 -15 -3 -5 -12 -4 -20 3 -11 9 -14 9 -14
0 0 -7 -4 -9 -10 -6 -5 3 -10 2 -10 -4 0 -6 -6 -8 -14 -5 -8 3 -17 1 -20 -5
-4 -6 -13 -8 -21 -4 -8 3 -15 0 -15 -7 0 -6 -4 -9 -8 -6 -12 7 -112 -24 -112
-35 0 -6 -5 -7 -10 -4 -6 4 -22 -1 -37 -10 -17 -12 -23 -13 -18 -4 5 8 -4 3
-20 -11 -16 -14 -25 -18 -21 -10 4 8 0 6 -9 -5 -14 -17 -17 -18 -25 -5 -7 10
-10 11 -10 3 0 -7 -7 -13 -16 -13 -8 0 -13 -4 -10 -8 2 -4 -5 -9 -16 -9 -12
-1 -24 -6 -27 -10 -11 -15 -52 -34 -61 -28 -6 4 -10 -1 -10 -10 0 -9 -4 -14
-9 -11 -5 3 -14 -1 -21 -9 -7 -8 -19 -15 -26 -15 -8 0 -14 -4 -14 -10 0 -5 -6
-10 -14 -10 -7 0 -19 -7 -26 -15 -7 -8 -16 -12 -21 -9 -5 3 -9 0 -9 -5 0 -6
-7 -11 -15 -11 -9 0 -18 -7 -21 -15 -4 -8 -12 -15 -20 -15 -8 0 -14 -5 -14
-11 0 -5 -4 -8 -9 -4 -5 3 -12 -4 -16 -15 -3 -11 -13 -20 -21 -20 -7 0 -19 -9
-26 -20 -7 -11 -17 -20 -21 -20 -5 0 -20 -9 -34 -20 -14 -11 -23 -20 -20 -20
3 0 -6 -12 -21 -27 -15 -15 -30 -27 -34 -25 -5 1 -8 -6 -8 -15 0 -9 -3 -14 -6
-11 -5 6 -49 -31 -49 -42 0 -10 -54 -58 -59 -52 -3 3 -6 -2 -6 -10 0 -9 -19
-36 -42 -61 -24 -24 -44 -51 -46 -58 -2 -8 -12 -23 -23 -35 -10 -11 -19 -25
-19 -31 0 -6 -7 -13 -15 -17 -8 -3 -15 -12 -15 -20 0 -7 -7 -17 -16 -20 -8 -3
-12 -10 -9 -16 3 -5 2 -10 -4 -10 -6 0 -8 -6 -5 -14 3 -7 -2 -16 -11 -20 -9
-3 -13 -10 -10 -16 3 -5 1 -10 -5 -10 -6 0 -8 -5 -5 -10 3 -6 -1 -13 -9 -16
-9 -3 -13 -10 -10 -15 3 -5 0 -9 -6 -9 -6 0 -9 -4 -5 -9 3 -5 -1 -16 -9 -24
-8 -8 -12 -17 -9 -21 4 -3 1 -6 -6 -6 -8 0 -11 -7 -7 -15 3 -8 1 -15 -5 -15
-6 0 -7 -4 -4 -10 3 -5 1 -10 -5 -10 -6 0 -8 -4 -5 -10 3 -5 1 -10 -4 -10 -6
0 -11 -9 -11 -20 0 -11 -4 -20 -9 -20 -6 0 -8 -9 -6 -20 2 -11 0 -20 -6 -20
-5 0 -9 -9 -9 -19 0 -11 -5 -23 -10 -26 -6 -4 -8 -10 -5 -15 3 -5 1 -11 -5
-15 -6 -4 -8 -10 -5 -15 3 -5 -1 -25 -9 -44 -8 -19 -12 -37 -8 -40 3 -3 1 -6
-5 -6 -6 0 -9 -9 -5 -22 4 -16 2 -19 -9 -13 -11 7 -11 5 1 -10 8 -10 10 -16 3
-12 -7 5 -12 1 -13 -10 -1 -43 -5 -63 -11 -63 -3 0 -5 -11 -4 -25 2 -14 -2
-25 -8 -25 -8 0 -7 -4 2 -9 8 -6 10 -14 5 -22 -5 -8 -10 -36 -13 -64 -2 -27
-6 -1300 -8 -2828 l-3 -2777 3204 0 c2213 0 3207 3 3211 11 5 7 11 6 21 -2 11
-9 14 -9 14 1 0 7 7 10 15 6 8 -3 15 -1 15 5 0 6 4 7 10 4 5 -3 29 2 52 13 24
10 49 17 57 14 8 -3 11 0 8 5 -3 5 2 9 11 10 37 3 57 11 54 23 -1 6 2 9 8 5 6
-4 18 -1 27 7 14 11 16 11 9 -2 -4 -8 0 -6 8 4 9 11 16 16 16 12 0 -5 8 -2 17
5 14 12 16 12 9 -1 -4 -9 -2 -8 7 2 8 10 17 15 20 11 4 -3 7 -1 7 5 0 7 3 11
8 11 20 -3 33 2 27 11 -4 6 -3 10 2 9 21 -4 41 2 59 19 11 9 30 23 43 30 19
11 22 11 16 0 -3 -7 1 -4 9 6 9 11 16 17 16 13 0 -4 10 1 22 12 12 12 40 33
62 48 23 15 44 32 48 38 5 7 8 7 8 0 0 -5 5 -2 11 8 6 9 14 15 19 12 5 -3 11
4 15 14 4 13 11 18 22 14 11 -4 14 -2 9 5 -4 8 -1 12 10 12 10 0 15 3 11 6 -6
6 52 64 65 64 3 0 9 9 13 19 4 13 12 18 22 14 11 -4 14 -2 9 5 -4 7 -2 12 4
12 6 0 10 3 8 8 -2 4 9 19 24 34 15 15 28 25 28 22 0 -3 6 1 14 8 7 7 11 20 8
28 -3 8 -2 12 2 8 9 -7 46 27 46 42 0 5 5 10 11 10 5 0 7 5 4 10 -3 6 1 13 9
16 9 3 16 10 16 15 0 8 20 35 47 64 7 7 9 15 6 19 -4 3 -1 6 5 6 7 0 12 7 12
15 0 8 4 15 9 15 5 0 11 8 15 18 3 9 15 33 26 52 41 69 44 75 41 89 -1 8 2 10
10 5 8 -4 10 -3 5 5 -4 6 0 18 8 27 9 9 14 20 10 25 -3 5 2 12 10 15 9 3 13
10 10 15 -3 6 2 21 10 34 9 14 14 25 11 25 -3 0 -1 9 5 21 6 11 13 28 16 37
11 48 30 92 39 92 5 0 3 5 -5 10 -11 7 -11 10 -2 10 7 0 10 5 7 10 -3 6 0 10
7 10 9 0 9 3 -2 10 -11 7 -11 10 -2 10 7 0 10 5 7 10 -3 5 0 10 7 10 10 0 10
2 1 8 -10 6 -10 12 2 28 18 24 19 38 3 28 -9 -5 -9 -3 1 9 7 9 11 26 8 36 -3
11 -1 21 5 23 5 2 9 12 9 23 -1 43 -1 52 6 95 4 25 8 1317 10 2873 l3 2827
-2977 0 c-1638 0 -2983 -4 -2990 -8z"/>
</g>
</svg>
